<svg xmlns="http://www.w3.org/2000/svg" viewBox="0 0 96 96" width="512" height="512">
  <rect x="8" y="8" width="80" height="80" rx="22" fill="#5865f2"/>
  <rect x="20" y="19" width="56" height="32" rx="5" fill="#ffffff"/>
  <path d="M44 28 L58 36 L44 44 Z" fill="#5865f2"/>
  <g fill="#ffffff">
    <path d="M23 80 L23 77 A9 9 0 0 1 41 77 L41 80 Z"/>
    <circle cx="32" cy="65" r="5.5"/>
    <path d="M39 80 L39 77 A9 9 0 0 1 57 77 L57 80 Z"/>
    <circle cx="48" cy="65" r="5.5"/>
    <path d="M55 80 L55 77 A9 9 0 0 1 73 77 L73 80 Z"/>
    <circle cx="64" cy="65" r="5.5"/>
  </g>
</svg>
